<?xml version="1.0" standalone="no"?>
<!DOCTYPE svg PUBLIC "-//W3C//DTD SVG 20010904//EN"
 "http://www.w3.org/TR/2001/REC-SVG-20010904/DTD/svg10.dtd">
<svg version="1.0" xmlns="http://www.w3.org/2000/svg"
 width="220pt" height="248.000000pt" viewBox="0 0 220 248.000000"
 preserveAspectRatio="xMidYMid meet">
<metadata>
Created by potrace 1.10, written by Peter Selinger 2001-2011
</metadata>
<g transform="translate(0.000000,248.000000) scale(0.100000,-0.100000)"
fill="#101a36" stroke="none">
<path d="M975 2232 c-11 -5 -189 -9 -394 -10 l-375 -1 0 -53 c0 -29 1 -171 2
-315 l2 -263 48 0 c64 0 120 -17 135 -41 6 -10 17 -19 23 -19 7 0 15 -7 18
-16 9 -23 7 -36 -4 -29 -6 4 -10 -7 -10 -24 0 -27 -3 -31 -29 -31 -25 0 -28
-3 -25 -27 2 -16 1 -21 -2 -13 -3 10 -20 16 -54 17 -60 3 -98 26 -117 70 -14
36 -11 53 12 53 7 0 16 7 19 16 5 12 14 15 35 11 16 -3 36 -1 45 6 15 11 10
13 -28 12 -33 0 -50 -6 -66 -22 -11 -13 -25 -23 -30 -23 -17 0 -11 -43 10 -77
17 -28 20 -57 24 -265 3 -128 5 -240 5 -249 1 -15 52 -16 549 -16 637 0 907
-7 926 -22 7 -6 19 -39 26 -74 6 -34 14 -68 16 -75 5 -17 -44 -37 -135 -56
-39 -8 -85 -25 -101 -36 -33 -23 -40 -17 -13 12 16 18 14 41 -13 144 -6 21 24
34 184 79 41 12 18 14 -28 3 -57 -13 -597 -19 -1270 -14 -151 1 -174 -1 -171
-14 10 -35 14 -557 5 -604 l-6 -28 93 7 c109 7 381 9 979 6 234 -1 432 -2 441
-2 13 1 15 31 18 233 2 192 5 234 17 243 13 9 14 21 4 80 -7 39 -18 80 -26 93
-12 19 -12 22 0 22 11 0 14 36 17 198 6 337 1 443 -19 450 -11 3 -11 0 -1 -16
19 -30 -3 -76 -32 -67 -18 6 -19 5 -10 -14 25 -45 -11 -91 -59 -76 -16 5 -20
2 -20 -14 0 -28 -32 -44 -55 -27 -10 7 -15 18 -11 24 4 7 2 12 -5 12 -6 0 -9
-8 -6 -19 7 -28 -9 -49 -25 -33 -14 14 -32 17 -24 3 6 -10 -37 -31 -64 -31
-10 0 -26 9 -34 21 -8 12 -19 18 -26 14 -7 -4 -23 -1 -37 6 -21 11 -24 19 -20
45 4 23 1 34 -9 38 -21 8 -17 27 6 33 20 5 28 23 11 23 -5 0 -11 10 -13 23 -3
17 -7 12 -17 -22 -10 -35 -10 -49 -1 -67 7 -12 9 -27 5 -34 -11 -18 35 -60 67
-60 15 0 28 -4 28 -8 0 -5 11 -14 24 -20 19 -8 31 -7 59 7 24 12 40 15 51 9
12 -6 18 -4 22 7 4 10 13 13 25 10 24 -8 59 11 59 31 0 11 6 14 16 10 16 -6
54 9 66 28 4 6 8 23 8 39 0 18 5 27 15 27 14 0 15 -29 10 -257 -4 -142 -9
-264 -11 -272 -4 -11 -38 -12 -197 -6 -105 4 -310 7 -454 7 l-263 0 0 299 0
299 245 -1 c205 0 247 -2 260 -15 13 -14 15 -12 15 15 0 35 23 46 73 36 22 -4
28 -3 18 3 -11 8 -7 13 17 26 34 18 77 22 67 6 -9 -15 4 -12 21 5 9 8 31 15
50 15 27 0 37 -5 46 -25 7 -17 14 -21 19 -14 4 6 12 8 18 5 6 -4 9 -12 6 -17
-7 -10 29 -12 64 -2 l23 6 -8 166 c-6 141 -7 275 0 431 l1 34 -145 3 c-266 4
-525 12 -555 17 -16 3 -39 2 -50 -2z m220 -20 l110 -7 -3 -105 c-2 -57 -5
-106 -7 -108 -2 -2 -44 -5 -94 -6 -83 -1 -91 -3 -100 -24 -14 -31 -15 -30 14
-34 l25 -3 -26 -30 c-22 -26 -24 -27 -19 -7 5 19 2 22 -20 22 -25 0 -25 1 -10
29 16 32 11 40 -28 43 -23 2 -25 7 -31 73 -4 38 -6 93 -5 121 l2 51 41 -4 c22
-2 91 -7 151 -11z m-203 -120 l3 -117 37 -3 37 -3 -21 -35 -20 -34 31 0 31 0
-15 -37 c-8 -20 -14 -38 -12 -39 2 -2 22 19 46 48 42 52 48 76 16 70 -11 -2
-15 2 -13 10 3 8 22 13 51 14 l47 1 1 -106 c0 -58 1 -139 3 -179 l3 -72 -246
2 c-135 1 -352 1 -481 0 -129 -2 -242 -3 -250 -2 -13 0 -15 40 -16 298 l-1
297 383 2 383 2 3 -117z m536 108 l177 0 2 -299 2 -300 -22 -3 c-20 -3 -40 3
-77 24 -49 28 -56 29 -85 17 -17 -6 -43 -11 -58 -10 -15 2 -38 -4 -50 -12 -20
-13 -43 -14 -164 -8 -23 1 -23 1 -23 184 l0 184 36 1 c20 1 39 3 41 5 2 2 6
54 10 116 5 91 9 111 20 106 8 -3 94 -5 191 -5z m-203 -610 c5 0 0 -7 -12 -15
-17 -12 -87 -16 -369 -22 -501 -10 -528 -9 -556 19 -17 17 -9 18 145 21 89 2
301 2 472 1 171 -2 314 -4 320 -4z m-742 -61 c67 0 136 4 154 7 l33 6 0 -302
0 -302 -269 4 -268 3 -1 233 c-1 216 0 233 16 226 9 -4 36 -9 60 -12 23 -2 42
-8 42 -12 0 -12 29 -40 41 -40 6 0 6 7 -1 19 -16 31 -12 48 15 55 14 4 25 13
25 21 0 26 1 30 15 45 9 10 11 20 5 30 -13 20 -12 33 1 25 6 -4 65 -7 132 -6z
m86 -668 c158 -3 319 -3 360 2 41 4 77 5 80 2 6 -7 2 -588 -5 -595 -3 -3 -33
-5 -67 -4 -259 3 -565 3 -682 0 l-140 -3 0 139 0 139 90 -7 c69 -5 99 -12 127
-30 21 -13 40 -24 43 -24 2 0 -7 21 -20 47 -20 36 -26 64 -28 125 l-2 78 -105
0 -105 0 -2 70 -2 69 67 3 c37 2 76 2 86 0 11 -3 148 -7 305 -11z m831 -1 c-8
-5 -23 -10 -33 -10 -14 0 -17 -5 -11 -22 25 -78 32 -133 20 -148 -16 -20 -37
-70 -29 -70 3 0 21 12 40 26 20 15 67 34 111 44 42 10 84 21 94 25 15 6 16
-12 12 -211 -3 -120 -7 -220 -9 -222 -5 -5 -554 -6 -559 -1 -5 5 -8 234 -7
452 l1 147 193 0 c127 0 187 -4 177 -10z m-1089 -191 c3 -24 4 -59 2 -76 -3
-18 0 -33 5 -33 5 0 14 -12 21 -26 l12 -27 -25 16 c-17 11 -58 19 -123 23
l-98 7 -3 74 c-1 41 0 78 3 82 2 4 48 7 102 6 l98 -2 6 -44z"/>
<path d="M1390 1260 c0 -11 7 -23 16 -27 17 -6 42 13 30 24 -4 4 -11 1 -15 -6
-6 -9 -11 -10 -15 -2 -4 6 -2 11 3 11 6 0 11 5 11 10 0 6 -7 10 -15 10 -8 0
-15 -9 -15 -20z"/>
<path d="M1365 1220 c-10 -17 12 -37 25 -24 8 8 6 15 -4 23 -10 9 -16 9 -21 1z"/>
</g>
</svg>
