<?xml version="1.0" standalone="no"?>
<!DOCTYPE svg PUBLIC "-//W3C//DTD SVG 20010904//EN"
 "http://www.w3.org/TR/2001/REC-SVG-20010904/DTD/svg10.dtd">
<svg version="1.0" xmlns="http://www.w3.org/2000/svg"
 width="300.000000pt" height="188.000000pt" viewBox="0 0 300.000000 188.000000"
 preserveAspectRatio="xMidYMid meet">
<metadata>
Created by potrace 1.10, written by Peter Selinger 2001-2011
</metadata>
<g transform="translate(0.000000,188.000000) scale(0.100000,-0.100000)"
fill="#000000" stroke="none">
<path d="M475 1859 c-67 -39 -115 -114 -115 -179 0 -65 31 -161 54 -171 26
-10 82 -57 76 -62 -3 -1 -26 -14 -52 -27 -55 -29 -55 -29 -78 -135 -12 -56
-14 -86 -8 -99 6 -10 8 -39 5 -65 -4 -32 3 -75 25 -151 17 -58 34 -112 38
-121 5 -8 14 -64 21 -125 6 -60 17 -118 24 -129 7 -11 15 -58 18 -105 3 -47
11 -127 17 -178 8 -67 8 -97 0 -106 -5 -8 -8 -20 -5 -28 3 -8 -6 -25 -20 -38
-38 -36 -30 -98 15 -112 21 -7 64 26 90 66 19 32 20 44 15 178 -11 279 -13
460 -5 452 11 -11 20 -205 20 -394 -1 -181 8 -276 27 -295 8 -8 27 -15 43 -15
25 0 30 5 36 35 4 21 0 52 -9 80 -9 25 -12 43 -6 40 5 -4 9 -2 9 4 0 5 -5 11
-12 13 -9 3 -9 27 1 104 18 152 20 180 11 220 -5 21 -4 47 1 62 6 14 12 82 16
151 3 88 11 144 26 186 13 40 21 97 25 170 3 80 8 112 19 120 13 9 12 19 -1
78 -24 101 -36 119 -105 151 l-62 28 23 23 c56 57 68 81 68 141 0 54 -11 107
-31 146 -5 10 -9 24 -9 32 0 8 -14 24 -31 37 -36 25 -142 37 -174 18z m142
-16 c14 -5 13 -8 -6 -15 -12 -4 -19 -12 -16 -18 4 -6 3 -9 -2 -8 -5 2 -21 -7
-37 -19 -16 -13 -25 -23 -21 -23 4 0 2 -7 -5 -15 -26 -32 4 -13 47 29 l44 44
26 -26 c22 -22 26 -34 24 -77 -1 -40 2 -55 19 -70 22 -20 26 -40 8 -51 -8 -5
-9 0 -6 14 4 12 2 20 -3 16 -5 -3 -9 -16 -9 -30 0 -14 4 -22 10 -19 20 12 9
-11 -23 -47 -30 -36 -36 -38 -108 -44 -75 -7 -77 -6 -109 24 -18 18 -37 29
-42 26 -10 -6 -7 -1 26 63 9 17 16 46 16 65 0 32 2 34 37 36 21 2 39 5 41 7
10 9 -12 25 -34 25 -18 0 -23 -4 -18 -12 5 -9 2 -9 -9 1 -15 12 -19 9 -32 -23
-9 -20 -13 -47 -10 -59 4 -15 1 -28 -10 -37 -22 -18 -32 -4 -40 55 -8 64 22
125 85 174 40 30 48 32 92 27 27 -4 56 -10 65 -13z m51 -49 c-4 -3 -12 5 -18
18 -12 22 -12 22 6 6 10 -10 15 -20 12 -24z m29 -108 c-3 -8 0 -19 6 -25 8 -8
8 -11 -1 -11 -7 0 -12 3 -13 8 0 4 -2 23 -4 41 -2 27 -1 31 7 17 5 -9 7 -23 5
-30z m-105 -309 c-23 -22 -36 -17 -56 21 -33 65 -31 71 21 74 l48 3 3 -39 c2
-29 -2 -44 -16 -59z m56 61 c16 -19 3 -70 -16 -63 -8 3 -24 -3 -36 -12 -12
-11 -10 -5 7 16 18 21 26 40 22 52 -7 21 7 25 23 7z m-137 -60 c-35 -15 -38
-8 -20 39 l11 28 12 -30 c11 -26 11 -31 -3 -37z m-38 7 l-5 -34 36 6 c32 5 38
3 43 -16 7 -28 21 -27 45 4 14 18 26 23 43 19 20 -5 24 -1 30 26 5 24 11 30
23 25 10 -4 24 -9 33 -12 20 -6 45 -59 59 -127 12 -55 10 -59 -43 -76 -42 -13
-53 -38 -43 -98 10 -52 10 -82 2 -125 -8 -45 -24 -48 -32 -7 -4 17 -10 30 -15
30 -16 0 -10 -26 12 -54 11 -14 19 -26 17 -27 -2 0 -16 -2 -33 -3 -16 -1 -57
-6 -90 -10 -52 -7 -64 -5 -85 12 -24 19 -24 20 -13 108 7 49 9 101 6 117 -5
25 -3 27 30 27 30 0 35 4 40 29 3 16 3 45 0 65 -5 31 -9 36 -32 36 -57 0 -71
-10 -70 -49 0 -20 3 -30 6 -23 5 13 33 17 33 5 0 -5 3 -17 6 -29 4 -14 1 -21
-10 -21 -9 0 -16 4 -16 9 0 12 -28 10 -32 -3 -2 -6 -14 -8 -32 -3 -27 6 -28 9
-22 52 3 25 11 51 16 57 6 7 10 17 8 21 -1 5 1 23 4 40 5 24 16 34 45 46 21 9
39 16 40 17 1 1 -1 -15 -4 -34z m42 -129 c4 -19 5 -42 3 -52 -5 -28 -25 -27
-32 2 -5 19 -2 30 11 40 16 11 14 12 -19 7 -30 -4 -38 -2 -38 10 0 9 11 17 28
20 15 2 30 5 34 6 4 0 10 -14 13 -33z m249 -158 c-2 -56 -12 -119 -25 -165
-22 -75 -22 -75 -53 -69 -17 4 -37 14 -43 23 -7 9 -15 14 -19 11 -11 -11 36
-48 60 -48 32 0 34 -14 25 -147 -8 -126 -12 -138 -39 -123 -27 14 -38 12 -17
-4 13 -10 15 -16 7 -21 -9 -6 -9 -10 1 -16 11 -7 10 -9 -5 -9 -15 0 -16 -3 -6
-15 7 -8 20 -15 29 -14 12 0 11 2 -4 9 -11 5 -14 9 -7 9 9 1 11 8 7 21 -4 11
-2 20 4 20 17 0 24 -67 17 -154 -6 -67 -10 -84 -29 -98 -12 -10 -17 -18 -11
-18 5 0 15 5 22 12 14 14 16 0 3 -21 -6 -9 -18 -11 -35 -7 -29 7 -31 19 -17
107 6 36 6 70 0 95 -6 22 -12 77 -14 124 -6 113 -14 170 -25 170 -15 0 -20
-53 -18 -231 0 -118 -3 -183 -11 -200 -11 -23 -11 -23 3 -5 15 19 16 16 16
-35 0 -62 -18 -96 -44 -86 -10 4 -14 11 -11 17 4 6 10 8 14 6 4 -3 13 -1 21 5
12 7 12 9 1 9 -11 0 -11 3 0 18 11 14 9 13 -9 -2 -12 -11 -24 -17 -26 -15 -7
6 -29 206 -31 269 0 30 -6 64 -12 75 -6 11 -16 58 -22 105 -7 47 -16 102 -20
123 -8 34 -6 38 15 43 13 3 24 9 24 13 0 4 17 5 38 3 l37 -4 0 -48 c0 -45 -2
-50 -25 -53 -20 -3 -19 -4 8 -6 21 -1 32 4 32 13 0 7 7 19 15 26 8 7 15 25 15
40 0 16 6 31 13 33 6 3 -3 6 -22 6 -60 2 -25 13 38 13 34 0 61 2 61 4 0 2 9
39 21 82 15 57 19 93 15 140 -5 60 -4 62 18 62 23 0 23 -2 20 -92z m-314 9 c0
-34 -5 -69 -10 -77 -7 -10 -10 11 -10 68 0 53 4 81 10 77 6 -3 10 -34 10 -68z
m-37 5 c-4 -40 -1 -69 11 -96 9 -21 16 -48 16 -60 0 -12 7 -32 16 -44 18 -26
17 -29 -9 -34 -14 -2 -22 9 -36 52 -47 139 -51 240 -11 240 16 0 17 -7 13 -58z
m306 -15 c1 -10 -3 -15 -9 -12 -5 3 -10 21 -9 38 0 27 2 29 9 12 5 -11 9 -28
9 -38z m-129 -241 c0 -14 -4 -28 -10 -31 -6 -4 -10 7 -10 24 0 17 5 31 10 31
6 0 10 -11 10 -24z m78 -620 c2 -9 -1 -16 -7 -16 -12 0 -41 28 -41 40 0 16 45
-6 48 -24z m6 -49 c3 -14 -2 -25 -15 -35 -16 -11 -17 -17 -8 -28 9 -11 9 -14
-1 -14 -8 0 -11 -2 -8 -5 3 -3 16 -1 29 4 17 7 19 10 7 10 -21 1 -24 17 -5 24
16 5 37 -46 30 -73 -4 -16 -12 -20 -31 -18 -20 2 -27 12 -38 48 -19 63 -11
116 11 80 3 -5 1 -10 -6 -10 -7 0 -10 -3 -6 -6 3 -4 14 -4 23 0 16 6 15 8 -4
22 -27 19 -29 34 -3 27 11 -3 22 -14 25 -26z m-89 13 c3 -5 1 -10 -5 -10 -6 0
-8 -4 -5 -10 9 -15 -7 -11 -30 6 -20 16 -19 16 4 9 16 -5 21 -4 17 4 -4 6 -3
11 3 11 5 0 13 -4 16 -10z m-5 -61 c0 -8 -13 -28 -30 -44 -16 -15 -27 -31 -25
-35 2 -3 -9 -4 -26 -2 -40 6 -40 45 2 88 27 28 33 30 55 20 13 -6 24 -18 24
-27z m-73 -95 c-3 -3 -12 -4 -19 -1 -8 3 -5 6 6 6 11 1 17 -2 13 -5z"/>
<path d="M518 1843 c6 -2 18 -2 25 0 6 3 1 5 -13 5 -14 0 -19 -2 -12 -5z"/>
<path d="M468 1823 c-10 -2 -18 -8 -18 -13 0 -5 8 -7 18 -4 14 5 14 3 -2 -10
-26 -21 -12 -21 19 0 14 9 22 20 19 25 -5 9 -8 10 -36 2z"/>
<path d="M550 1805 c-13 -14 -28 -25 -34 -25 -6 0 -5 5 2 12 25 25 11 31 -15
6 -16 -14 -41 -28 -56 -32 -16 -4 -25 -11 -21 -17 3 -6 -3 -13 -15 -16 -16 -4
-21 -13 -21 -40 0 -45 23 -39 30 8 4 25 10 34 25 34 11 1 26 4 33 8 6 5 16 6
20 3 4 -2 14 -1 22 5 10 6 11 9 3 9 -7 0 4 16 25 35 20 19 34 35 31 35 -3 0
-16 -11 -29 -25z m-43 -40 c0 -8 -4 -12 -9 -9 -5 3 -14 1 -21 -5 -8 -6 -18 -6
-27 -1 -12 8 -10 10 7 10 12 0 25 5 28 10 9 15 22 12 22 -5z m-100 -82 c-3
-10 -5 -4 -5 12 0 17 2 24 5 18 2 -7 2 -21 0 -30z"/>
<path d="M576 1715 c-11 -17 -15 -33 -10 -43 8 -18 11 -28 13 -50 0 -7 6 -10
12 -6 6 3 8 17 5 29 -3 14 -1 27 6 31 7 4 8 3 4 -4 -9 -14 13 -16 34 -2 12 8
12 10 -3 16 -9 3 -29 3 -44 -1 l-27 -6 19 21 c14 16 27 20 47 16 16 -3 28 -1
28 4 0 6 -6 10 -12 10 -7 0 -22 3 -34 6 -15 4 -25 -2 -38 -21z"/>
<path d="M475 1670 c-4 -6 5 -10 19 -10 14 0 26 5 26 10 0 6 -9 10 -19 10 -11
0 -23 -4 -26 -10z"/>
<path d="M475 1591 c-6 -21 3 -51 17 -51 5 0 7 4 4 8 -3 5 20 10 51 11 63 2
86 11 57 22 -28 11 -82 11 -89 -1 -3 -5 -13 -10 -21 -10 -12 0 -12 4 -4 20 7
12 7 20 1 20 -5 0 -12 -8 -16 -19z m98 -18 c-7 -2 -21 -2 -30 0 -10 3 -4 5 12
5 17 0 24 -2 18 -5z"/>
<path d="M627 1550 c-3 -11 -1 -20 4 -20 5 0 9 9 9 20 0 11 -2 20 -4 20 -2 0
-6 -9 -9 -20z"/>
<path d="M442 1330 c7 -10 14 -18 15 -16 6 6 -9 36 -18 36 -5 0 -4 -9 3 -20z"/>
<path d="M407 1334 c-10 -11 -8 -26 2 -20 5 4 7 -4 5 -16 l-5 -23 12 23 c12
22 1 50 -14 36z"/>
<path d="M729 1320 c-4 -23 -7 -25 -56 -22 -30 2 -54 -1 -58 -8 -4 -6 -7 -32
-7 -58 0 -39 -2 -43 -9 -23 -5 13 -12 22 -14 19 -6 -6 25 -100 37 -113 9 -9 5
13 -9 51 -3 7 10 11 34 10 35 -1 38 1 41 29 2 17 8 35 13 40 7 7 8 0 3 -19 -5
-21 -4 -27 5 -22 6 4 11 25 11 46 0 21 5 40 11 42 6 2 9 15 7 28 l-4 25 -5
-25z m-36 -40 c9 0 17 -5 17 -11 0 -15 -73 -6 -78 10 -4 10 1 12 19 8 13 -4
32 -7 42 -7z m-14 -68 l-1 -27 -8 25 c-8 24 -8 24 -9 3 -1 -16 -7 -23 -21 -23
-16 0 -20 7 -20 34 0 34 0 35 30 25 24 -9 30 -17 29 -37z"/>
<path d="M391 1280 c0 -14 6 -34 14 -44 18 -24 18 -21 0 29 -11 32 -14 35 -14
15z"/>
<path d="M560 1100 c11 -22 24 -40 29 -40 5 0 0 18 -12 40 -29 52 -44 52 -17
0z"/>
<path d="M481 1025 c-1 -24 33 -100 48 -109 14 -9 14 7 1 20 -6 6 -19 33 -30
60 -10 27 -19 40 -19 29z"/>
<path d="M516 735 c-16 -12 -17 -15 -4 -15 8 0 21 7 28 15 16 19 1 19 -24 0z"/>
<path d="M534 705 c-10 -8 -14 -14 -9 -15 15 0 40 18 34 24 -3 3 -14 -1 -25
-9z"/>
<path d="M645 670 c-10 -11 -16 -22 -13 -25 3 -3 13 4 23 15 10 11 16 22 13
25 -3 3 -13 -4 -23 -15z"/>
<path d="M535 660 c-3 -5 -2 -10 4 -10 5 0 13 5 16 10 3 6 2 10 -4 10 -5 0
-13 -4 -16 -10z"/>
<path d="M656 625 c-11 -8 -18 -17 -15 -19 2 -3 15 4 29 14 14 11 21 20 15 19
-5 0 -19 -6 -29 -14z"/>
<path d="M534 561 c18 -7 18 -8 -4 -29 -13 -12 -20 -22 -14 -22 18 0 38 19 41
39 2 16 -2 21 -20 20 -20 0 -20 -1 -3 -8z"/>
<path d="M508 493 c7 -3 16 -2 19 1 4 3 -2 6 -13 5 -11 0 -14 -3 -6 -6z"/>
<path d="M518 473 c10 -4 10 -8 1 -19 -8 -10 -8 -14 -1 -14 6 0 16 9 22 20 9
17 8 20 -12 19 -13 0 -17 -3 -10 -6z"/>
<path d="M548 303 c7 -3 16 -2 19 1 4 3 -2 6 -13 5 -11 0 -14 -3 -6 -6z"/>
<path d="M529 153 c-1 -5 -1 -12 0 -16 1 -5 -3 -6 -8 -3 -5 4 -12 2 -16 -4 -3
-5 1 -10 9 -10 9 0 19 0 24 0 4 0 8 9 8 20 1 18 -14 30 -17 13z"/>
<path d="M1538 1260 c-13 -8 -18 -33 -23 -119 l-7 -109 -57 -4 c-31 -2 -57 0
-59 4 -2 5 -41 8 -87 8 -46 0 -107 5 -135 11 -35 7 -55 8 -62 1 -7 -7 -6 -44
1 -114 6 -56 13 -155 15 -218 3 -110 4 -116 27 -127 23 -12 23 -13 3 -13 -49
0 -64 -28 -79 -150 -9 -63 -20 -142 -25 -175 -17 -114 -21 -165 -11 -165 14 0
28 53 41 155 18 144 42 269 54 282 6 7 32 16 56 19 l45 6 2 -164 c1 -89 2
-176 3 -191 0 -23 4 -28 22 -25 21 3 21 5 19 195 -2 185 -2 193 17 193 17 0
20 -9 24 -95 3 -53 8 -98 11 -102 3 -3 13 -3 22 1 13 5 15 19 9 97 -6 76 -5
91 7 87 11 -4 14 -37 14 -169 0 -152 4 -178 28 -179 4 0 5 77 2 170 l-5 171
21 -12 c22 -11 22 -15 16 -158 -4 -80 -10 -188 -13 -238 -5 -63 -4 -93 4 -93
15 0 31 178 41 446 1 41 2 42 60 63 65 24 124 27 138 9 6 -7 15 -44 22 -83 6
-38 15 -92 21 -120 6 -27 11 -66 11 -85 1 -45 29 -150 40 -150 12 0 11 30 -6
140 -8 52 -20 128 -26 169 -14 96 -30 146 -49 146 -8 1 -31 5 -51 9 -28 6 -48
3 -84 -13 -75 -33 -105 -24 -105 32 0 22 4 27 18 23 9 -2 49 -7 87 -11 39 -4
75 -10 80 -15 17 -13 58 -23 51 -12 -4 6 2 8 16 4 13 -3 19 -1 15 5 -7 10 -18
13 -179 36 -47 6 -89 15 -92 18 -3 3 -7 41 -10 85 -2 43 -8 94 -11 112 l-7 32
354 0 354 0 -8 -77 c-3 -43 -7 -95 -7 -115 -1 -31 -5 -38 -21 -38 -17 0 -19
-3 -11 -17 6 -11 5 -26 -1 -42 -5 -15 -18 -98 -28 -186 -10 -88 -22 -168 -25
-177 -4 -10 -3 -18 3 -18 6 0 13 10 15 23 2 12 5 2 5 -23 1 -25 -2 -62 -7 -82
-6 -24 -5 -40 2 -47 19 -19 27 -12 26 27 -1 42 17 304 26 371 6 50 19 71 44
71 9 0 21 3 27 7 5 5 70 6 144 3 l135 -5 12 -140 c7 -76 14 -150 18 -162 3
-15 1 -23 -7 -23 -9 0 -9 -3 -1 -11 23 -23 30 0 21 62 -8 49 -7 63 4 70 9 6
13 35 13 104 0 52 -3 95 -7 95 -5 0 -8 -43 -8 -97 0 -53 -3 -94 -6 -90 -9 9
-21 187 -12 187 3 0 12 2 20 5 7 3 22 -1 33 -10 18 -14 18 -14 2 -9 -16 6 -17
4 -9 -12 13 -24 30 -161 38 -319 6 -108 14 -145 33 -145 3 0 4 22 3 50 -4 45
-2 50 16 50 12 0 23 8 25 18 3 9 5 136 6 282 1 146 4 313 6 372 l6 106 -62 33
c-34 18 -66 43 -72 56 -10 22 -13 22 -188 22 -134 0 -182 -3 -192 -13 -9 -10
-44 -13 -122 -12 l-110 1 -6 90 c-9 143 4 132 -162 138 -78 3 -151 8 -162 11
-11 3 -27 1 -37 -4z m47 -19 l-40 -6 -3 -97 c-2 -83 0 -98 13 -98 12 0 11 -4
-5 -20 -22 -22 -25 -36 -11 -44 5 -3 12 5 15 18 8 31 28 36 177 36 91 0 130 4
137 13 6 7 12 37 15 67 3 52 3 51 5 -15 1 -45 8 -79 18 -93 15 -22 12 -42 -7
-42 -6 0 -7 4 -4 10 3 5 1 19 -5 30 -10 19 -20 20 -154 20 -141 0 -144 0 -149
-22 -5 -21 -5 -21 7 -5 14 18 32 24 21 7 -3 -5 -1 -10 4 -10 6 0 11 5 11 10 0
6 9 10 20 10 11 0 20 -5 20 -11 0 -5 5 -7 11 -3 6 3 15 0 20 -7 7 -11 9 -11 9
-1 0 8 5 10 13 5 18 -11 37 -13 37 -3 0 5 -8 11 -17 13 -14 4 -12 5 5 6 14 1
22 -5 23 -16 1 -17 2 -17 6 0 5 21 33 23 33 2 0 -8 4 -15 10 -15 5 0 7 8 3 18
-5 14 -3 15 8 5 7 -7 18 -13 24 -13 5 0 3 5 -5 10 -12 8 -11 10 6 10 21 0 40
-25 26 -34 -6 -3 -351 -10 -375 -7 -4 1 -1 14 8 31 11 20 15 59 15 133 0 57 3
107 7 110 3 4 25 6 47 6 l41 -2 -40 -6z m289 -17 c3 -9 6 -21 5 -27 0 -7 -4
-3 -8 8 -6 16 -20 21 -72 26 l-64 6 66 1 c53 2 68 -1 73 -14z m-19 -15 c9 -9
8 -149 -1 -159 -10 -9 -218 -12 -259 -3 l-40 9 -3 73 c-2 41 -1 80 2 88 5 11
31 13 148 7 79 -3 147 -10 153 -15z m-573 -179 l96 0 7 -29 c3 -16 8 -48 10
-70 2 -23 8 -65 14 -94 5 -29 13 -97 16 -152 4 -54 11 -107 16 -117 5 -10 8
-18 7 -18 -34 1 -273 42 -288 50 -18 10 -20 21 -20 113 -1 56 -7 153 -13 215
-7 62 -11 114 -9 116 2 3 18 0 35 -5 18 -5 75 -9 129 -9z m1214 -1 c3 -6 6
-106 5 -222 -1 -164 -4 -214 -15 -222 -12 -9 -93 -11 -305 -6 l-73 1 7 28 c8
32 14 109 23 287 l7 130 105 5 c199 10 239 10 246 -1z m-1007 -40 c-9 -17 -8
-23 2 -30 9 -6 -3 -9 -32 -9 -34 0 -49 5 -53 16 -14 37 -7 44 44 44 49 0 50
-1 39 -21z m641 -11 c0 -25 -3 -28 -37 -29 -21 0 -71 -2 -110 -3 -59 -2 -71 0
-62 11 6 7 9 22 6 34 -5 20 -3 21 99 17 l104 -3 0 -27z m443 -13 c26 -11 47
-23 47 -27 0 -6 -89 0 -96 6 -7 6 -14 47 -7 45 5 -2 30 -13 56 -24z m-676 -19
c3 -3 -11 -5 -33 -5 -21 1 -88 1 -148 0 -60 -1 -113 2 -117 6 -4 4 60 7 142 6
83 0 153 -4 156 -7z m-349 -13 c-27 -2 -69 -2 -95 0 -27 2 -5 3 47 3 52 0 74
-1 48 -3z m494 -18 c47 0 77 -4 75 -10 -3 -15 -707 -14 -707 2 0 9 61 11 248
10 136 -1 227 1 202 4 -25 4 -11 4 30 1 41 -4 110 -6 152 -7z m15 9 c-3 -3
-12 -4 -19 -1 -8 3 -5 6 6 6 11 1 17 -2 13 -5z m529 -4 c8 0 14 -7 14 -15 0
-11 -11 -15 -40 -15 -28 0 -40 4 -40 14 0 16 19 26 38 20 8 -2 20 -4 28 -4z
m39 -197 c-3 -109 -5 -278 -5 -375 0 -157 -7 -207 -22 -165 -3 6 -1 145 3 307
4 162 8 325 8 363 1 39 5 67 11 67 7 0 9 -64 5 -197z m-32 0 c-2 -87 -6 -228
-10 -313 -7 -148 -7 -152 -14 -75 -16 198 -19 215 -45 227 -18 8 -21 14 -13
24 6 8 9 64 7 148 l-3 135 30 4 c17 2 35 5 40 5 6 1 9 -55 8 -155z m-483 -93
c0 -5 -4 -10 -10 -10 -5 0 -10 5 -10 10 0 6 5 10 10 10 6 0 10 -4 10 -10z m10
-65 c0 -2 -7 -5 -15 -9 -9 -3 -15 0 -15 9 0 9 6 12 15 9 8 -4 15 -7 15 -9z
m-933 -5 c-63 -11 -74 -21 -82 -81 -4 -28 -9 -48 -12 -45 -3 3 -2 26 2 51 9
64 33 85 93 84 l47 -1 -48 -8z m83 -190 c0 -120 -4 -190 -10 -190 -6 0 -10 70
-10 190 0 120 4 190 10 190 6 0 10 -70 10 -190z m79 88 c-2 -102 -6 -94 -11
20 -2 39 0 72 4 72 4 0 7 -42 7 -92z m121 67 c0 -8 -2 -15 -4 -15 -2 0 -6 7
-10 15 -3 8 -1 15 4 15 6 0 10 -7 10 -15z m253 -80 c3 -28 2 -41 -2 -30 -5 11
-11 45 -14 75 -3 32 -3 45 2 30 4 -14 10 -47 14 -75z m-256 33 c-3 -8 -6 -5
-6 6 -1 11 2 17 5 13 3 -3 4 -12 1 -19z m-380 -95 c-3 -10 -5 -4 -5 12 0 17 2
24 5 18 2 -7 2 -21 0 -30z m-10 -80 c-3 -10 -5 -4 -5 12 0 17 2 24 5 18 2 -7
2 -21 0 -30z m990 -20 c-3 -10 -5 -4 -5 12 0 17 2 24 5 18 2 -7 2 -21 0 -30z
m-610 -5 c-3 -7 -5 -2 -5 12 0 14 2 19 5 13 2 -7 2 -19 0 -25z m300 -60 c-3
-7 -5 -2 -5 12 0 14 2 19 5 13 2 -7 2 -19 0 -25z m-700 -50 c-3 -8 -6 -5 -6 6
-1 11 2 17 5 13 3 -3 4 -12 1 -19z m1520 -20 c-3 -7 -5 -2 -5 12 0 14 2 19 5
13 2 -7 2 -19 0 -25z"/>
<path d="M1640 989 c0 -5 5 -7 10 -4 6 3 10 8 10 11 0 2 -4 4 -10 4 -5 0 -10
-5 -10 -11z"/>
<path d="M791 264 c0 -11 3 -14 6 -6 3 7 2 16 -1 19 -3 4 -6 -2 -5 -13z"/>
<path d="M791 224 c0 -11 3 -14 6 -6 3 7 2 16 -1 19 -3 4 -6 -2 -5 -13z"/>
</g>
</svg>
